<svg width="152" height="20" viewBox="0 0 152 20" fill="none" xmlns="http://www.w3.org/2000/svg">
<path d="M151.46 10.4595C151.713 10.2056 151.714 9.79403 151.46 9.54025L147.324 5.40463C147.07 5.15085 146.659 5.15094 146.405 5.40484C146.151 5.65874 146.151 6.0703 146.405 6.32408L150.081 10.0002L146.403 13.678C146.149 13.9319 146.149 14.3434 146.403 14.5972C146.656 14.851 147.068 14.8509 147.322 14.597L151.46 10.4595ZM56.8619 10.6716L151 10.65L151 9.34998L56.8622 9.37164L56.8619 10.6716Z" fill="black"/>
<path d="M0.54049 9.57504C0.286588 9.82893 0.28649 10.2405 0.540271 10.4943L4.67586 14.6299C4.92964 14.8837 5.3412 14.8836 5.5951 14.6297C5.849 14.3758 5.8491 13.9642 5.59532 13.7104L1.91924 10.0343L5.59707 6.35654C5.85097 6.10264 5.85107 5.69108 5.59729 5.4373C5.34351 5.18351 4.93195 5.18361 4.67805 5.43751L0.54049 9.57504ZM56.8622 9.37169L1.00015 9.38455L0.999845 10.6845L56.8619 10.6717L56.8622 9.37169Z" fill="black"/>
<line x1="151.5" x2="151.5" y2="19.9997" stroke="black"/>
<line x1="1.50664" y1="0.000221766" x2="1.49777" y2="19.9999" stroke="black"/>
</svg>
