<svg width="434" height="20" viewBox="0 0 434 20" fill="none" xmlns="http://www.w3.org/2000/svg">
<path d="M433.466 10.4594C433.72 10.2056 433.72 9.79421 433.466 9.54048L429.332 5.40573C429.079 5.152 428.667 5.15203 428.413 5.4058C428.159 5.65957 428.159 6.07098 428.413 6.32471L432.087 10L428.408 13.676C428.153 13.9297 428.153 14.3412 428.407 14.5949C428.661 14.8486 429.072 14.8486 429.326 14.5948L433.466 10.4594ZM161.887 10.6714L433.006 10.6497L433.007 9.35021L161.888 9.37188L161.887 10.6714Z" fill="black"/>
<path d="M0.544866 9.57513C0.290841 9.8289 0.290559 10.2403 0.544236 10.494L4.67814 14.6288C4.93182 14.8825 5.34339 14.8825 5.59742 14.6287C5.85144 14.375 5.85173 13.9635 5.59805 13.7098L1.92347 10.0345L5.60309 6.35855C5.85711 6.10478 5.8574 5.69337 5.60372 5.43964C5.35004 5.18591 4.93847 5.18594 4.68444 5.43971L0.544866 9.57513ZM161.888 9.37192L1.00463 9.38478L1.00374 10.6843L161.887 10.6715L161.888 9.37192Z" fill="black"/>
<line x1="433.506" x2="433.506" y2="19.9997" stroke="black"/>
<line y1="-0.5" x2="19.9997" y2="-0.5" transform="matrix(-0.00127738 0.999999 -1 -0.000154003 1.0233 0)" stroke="black"/>
</svg>
